<svg width="24" height="22" viewBox="0 0 24 22" fill="none" xmlns="http://www.w3.org/2000/svg">
<path d="M22.771 7.84793H17.4182L13.6554 0.592554C13.5205 0.33243 13.2924 0.140413 13.013 0.0518403C12.7337 -0.0367326 12.4366 -0.0111863 12.1765 0.123724C12.086 0.170621 12.0051 0.228613 11.934 0.294949C11.8629 0.22866 11.782 0.170621 11.6915 0.123724C11.4314 -0.0111863 11.1343 -0.036686 10.855 0.0518403C10.5756 0.140366 10.3475 0.33243 10.2126 0.592554L6.24634 8.24021C6.11143 8.50034 6.08589 8.79743 6.17446 9.07676C6.20467 9.17209 6.24783 9.26094 6.30079 9.34266H1.097C0.877664 9.34266 0.699259 9.16426 0.699259 8.94492C0.699259 8.72564 0.87771 8.54719 1.097 8.54719H5.08301C5.2761 8.54719 5.43264 8.39069 5.43264 8.19756C5.43264 8.00447 5.2761 7.84793 5.08301 7.84793H1.097C0.492139 7.84793 0 8.34007 0 8.94492C0 9.44657 0.338535 9.87032 0.799067 10.0005L2.82407 20.8003C2.95437 21.4955 3.56231 22 4.26958 22H19.5985C20.3058 22 20.9137 21.4955 21.044 20.8003L23.069 10.0004C23.5295 9.87032 23.868 9.44657 23.868 8.94492C23.868 8.34002 23.3759 7.84793 22.771 7.84793ZM12.4984 0.744526C12.5927 0.695625 12.7005 0.686348 12.8017 0.718467C12.903 0.75054 12.9857 0.820186 13.0346 0.914493L17.0009 8.5622C17.0498 8.6565 17.0591 8.76424 17.027 8.86549C16.9949 8.96679 16.9252 9.04949 16.8309 9.09839C16.7366 9.14734 16.6289 9.15657 16.5276 9.12449C16.4263 9.09242 16.3436 9.02278 16.2947 8.92847L12.3285 1.28072C12.2275 1.08604 12.3037 0.845499 12.4984 0.744526ZM17.1542 10.042L16.8233 13.4533H12.2837V10.042H17.1542ZM11.934 2.039L15.674 9.25031C15.6905 9.2822 15.7085 9.31297 15.7278 9.34266H8.14026C8.15952 9.31297 8.17751 9.2822 8.19401 9.25036L8.5587 8.54723H13.8803C14.0734 8.54723 14.2299 8.39074 14.2299 8.1976C14.2299 8.00451 14.0734 7.84797 13.8803 7.84797H8.92134L11.934 2.039ZM6.8671 8.56215L10.8334 0.914446C10.8823 0.82014 10.965 0.750493 11.0663 0.718421C11.106 0.705834 11.1466 0.699634 11.187 0.699634C11.2499 0.699634 11.3122 0.714738 11.3696 0.74448C11.5643 0.845499 11.6406 1.086 11.5396 1.28067L7.57326 8.92838C7.52435 9.02268 7.44166 9.09233 7.34036 9.1244C7.23915 9.15647 7.13142 9.14724 7.03706 9.0983C6.94276 9.04939 6.87311 8.9667 6.84104 8.8654C6.80892 8.76419 6.8182 8.6565 6.8671 8.56215ZM1.51828 10.042H6.01135L6.34219 13.4533H2.15791L1.51828 10.042ZM2.28905 14.1525H6.41002L6.74086 17.5639H2.92864L2.28905 14.1525ZM4.26954 21.3008C3.89856 21.3008 3.57969 21.0361 3.51135 20.6715L3.05977 18.2631H6.80864L7.10326 21.3008H4.26954ZM11.5844 21.3008H7.80574L7.51116 18.2631H11.5844V21.3008ZM11.5844 17.5639H7.44334L7.11249 14.1525H11.5844V17.5639ZM11.5844 13.4533H7.04471L6.71387 10.042H11.5844V13.4533ZM16.0623 21.3008H12.2837V18.2631H16.3569L16.0623 21.3008ZM16.4247 17.5639H12.2837V14.1526H16.7556L16.4247 17.5639ZM20.3567 20.6715C20.2884 21.0361 19.9694 21.3008 19.5985 21.3008H16.7648L17.0594 18.2631H20.8083L20.3567 20.6715ZM20.9394 17.5639H17.1272L17.4581 14.1526H21.579L20.9394 17.5639ZM21.7101 13.4533H17.5259L17.8567 10.0419H22.3498L21.7101 13.4533ZM22.771 9.34271H22.7654C22.7651 9.34271 22.7649 9.34271 22.7647 9.34271H17.5673C17.6202 9.26099 17.6633 9.17214 17.6936 9.07681C17.7487 8.90278 17.7596 8.72181 17.7273 8.54723H22.771C22.9904 8.54723 23.1688 8.72568 23.1688 8.94497C23.1688 9.16426 22.9903 9.34271 22.771 9.34271Z" fill="white"/>
</svg>
